<mxfile host="app.diagrams.net" modified="2024-03-10T23:22:41.522Z" agent="Mozilla/5.0 (X11; Linux x86_64) AppleWebKit/537.36 (KHTML, like Gecko) Chrome/117.0.0.0 Safari/537.36" version="24.0.1" etag="wnSPTtw8l-D2IdensW00" type="github">
  <diagram name="Page-1" id="nuiT7_dmArabzgdPrtRQ">
    <mxGraphModel>
      <root>
        <mxCell id="0" />
        <mxCell id="1" parent="0" />
      </root>
    </mxGraphModel>
  </diagram>
</mxfile>
